<svg xmlns="http://www.w3.org/2000/svg" viewBox="0 0 137.62 131.18"><defs><style>.cls-1{fill:#2d88c5;}.cls-2{fill:#ff8d00;}.cls-3{fill:#878580;}.cls-4{fill:#824b27;}.cls-5,.cls-6{fill:#fff;}.cls-6,.cls-8{stroke:#000;stroke-miterlimit:10;}.cls-6{stroke-width:0.25px;}.cls-7{fill:#ffb94d;}.cls-8{fill:none;stroke-width:0.5px;}</style></defs><title>Asset 1</title><g id="Layer_2" data-name="Layer 2"><g id="version-owl"><g id="book_copy" data-name="book copy"><path class="cls-1" d="M137.62,40.53c-7.41,23.63-22,69-23.34,77.47-18.41-1.1-42,6.31-46.15,13.18-3.3-6.87-23.08-16.48-44.78-14C16.21,88.05,0,40.53,0,40.53c11.54,16.21,65.1,0,67.58,51.92,0,0,3.41.23,3.43-2.45C71.42,40.53,123.34,59.49,137.62,40.53Z"/></g><g id="page-left_copy" data-name="page-left copy"><path class="cls-2" d="M9.61,25.42a156.67,156.67,0,0,0,4.67,19c16.49,3,45.6,11,49.73,22.52C62.36,52.07,26.92,39.16,9.61,25.42Z"/></g><g id="page-right_copy" data-name="page-right copy"><path class="cls-3" d="M127.74,26.8c-3.58,13.18-5.22,19.36-5.22,19.36C109.33,48,82.14,50.69,73.62,66.9,76.64,46.85,118.12,36.69,127.74,26.8Z"/></g><g id="body"><path class="cls-4" d="M35.92,28.52C40.67,10.19,54.83,0,68.67,0s28.58,10.52,32,28.52c3.9,1.75,5.65,7.17,5.15,9.83C100.58,41,74.9,50.47,72.06,66.9c-.57,3.31-1.42,5.06-2.37,6-.11,1.32-1.84,1-2.73,1-.66-1.18-1.2-3.42-1.46-7C64.63,55.06,39,42.41,30.81,37.9,31.13,29.53,35.92,28.52,35.92,28.52Z"/></g><g id="sclera"><path class="cls-5" d="M68.15,13.52c2.77-4,14.27-9.67,19.43,3.25s-6.71,28.92-19.43,18C56.75,45,45.33,32.94,48,18.77S65.29,7.52,68.15,13.52Z"/></g><g id="breast"><path class="cls-5" d="M68.25,37.77c5.33,0,10.58,2.5,12.25,4.92-1.25,2.31,2.67,3.39,3.08,5.5.14,1.13-1.81.78-.61,2.87-4.61,3.83-7.3,6.6-9.81,12-1.23,2.66-1.14,7.47-3.47,9.77-.07.51-.14,1.19-2.73,1C65.29,71,65.53,65.77,65.15,65c-.42-1.95-3.9-7.84-11.47-13.35.89-1.63,1-2.16-.24-3.26.25-1.69,5.56-3.44,3.37-5.57C59.19,39.88,62.75,37.77,68.25,37.77Z"/></g><g id="eyebrow-left"><path class="cls-6" d="M65.08,10.65c-.37-6-6.91-8.42-6.91-8.42.66,1.83,1.12,2.33.75,3.12-8.13-.87-14.5,2-15.71,3.13a1,1,0,0,0,.33,1C46.17,8.73,52.63,4.9,65.08,10.65Z"/></g><g id="eyebrow-right"><path class="cls-6" d="M71.5,10.56C71.79,6.19,77,3.15,78,2.81a5.54,5.54,0,0,0-.62,3.13C83.5,5.52,91,7.73,92.63,9.06c0,.42-.17.59-.34.63C85.67,8.35,77.5,7.1,71.5,10.56Z"/></g><g id="pupil-left"><path d="M64.21,24.09c2.5,0,4.16,3.21,3.62,5.05S66,32.59,64.21,32.59c-2.46,0-3.83-3-3.54-4.79S62.54,24.09,64.21,24.09Z"/></g><g id="highlight-left"><path class="cls-5" d="M63.19,26.16a.93.93,0,0,1,.82.95c0,.38-.2,1-.82,1s-.86-.52-.81-1.06S62.71,26.16,63.19,26.16Z"/></g><g id="pupil-right"><path d="M72.63,24.09c2.45,0,3.66,2.34,3.66,4.46a4.35,4.35,0,0,1-3.87,4c-1.71,0-3.63-2.24-3.54-4.7A3.67,3.67,0,0,1,72.63,24.09Z"/></g><g id="highlight-right"><path class="cls-5" d="M71.58,26c.44,0,.75.48.75,1.1a1,1,0,0,1-.87,1.09c-.48,0-.86-.67-.86-1.31A.86.86,0,0,1,71.58,26Z"/></g><g id="beak"><path class="cls-7" d="M64,34.52c1.32-5.5,6.74-4.25,8.41-.83a20.8,20.8,0,0,1-3.61,8.16C68.25,42.44,64,34.52,64,34.52Z"/></g><g id="tuft-left"><path class="cls-8" d="M45.75,27.06c-1.62-1.62-6.25.32-6.56,3.5,1.94-.87,3.44-1.37,4.44-.62a9.76,9.76,0,0,0-4.07,6.69,25.28,25.28,0,0,1,4.25-3.5,10.21,10.21,0,0,0,.13,5.46c1.37-3.15,3.19-4.34,4.12-4.53"/></g><g id="tuft-right"><path class="cls-8" d="M91.31,26.8c3.25-1.17,5.63,1.64,6.19,3.58-3.19-1.57-4.5-.94-4.87-.44,3.43,2,5,4.7,4.68,6.19-2.18-2.44-3.62-3.44-5.12-3.5a6.8,6.8,0,0,1,.44,6c-1.88-3.53-2.75-4.34-4.07-4.59"/></g><g id="wing-left"><path class="cls-8" d="M37,28.69a3,3,0,0,1,2.79,0"/><path class="cls-8" d="M45.54,37.12c.79,2.23-.55,4.09-.48,8l-.31.55"/></g><g id="wing-right"><path class="cls-8" d="M100.33,28.94A5.87,5.87,0,0,0,97,28.69"/><path class="cls-8" d="M90.88,36.32c-.44,1.84.66,4.77.57,7.13a9.81,9.81,0,0,0-.14,2"/></g></g></g></svg>